<svg width="24" height="24" viewBox="0 0 24 24" fill="none" xmlns="http://www.w3.org/2000/svg">
<g clip-path="url(#clip0_193_8676)">
<path d="M10.9438 8.19562C11.0208 8.19494 11.0208 8.19494 11.0993 8.19425C11.1546 8.19405 11.2099 8.19385 11.2668 8.19365C11.324 8.19338 11.3811 8.19311 11.4399 8.19284C11.5608 8.1924 11.6817 8.19209 11.8026 8.19191C11.9869 8.19145 12.1712 8.19 12.3556 8.18852C12.4731 8.18822 12.5907 8.18797 12.7083 8.18779C12.7906 8.18692 12.7906 8.18692 12.8746 8.18604C13.5209 8.18779 13.5209 8.18779 13.7602 8.41186C13.9392 8.61974 13.9745 8.73697 13.9717 9.0059C13.9713 9.05727 13.9708 9.10863 13.9704 9.16154C13.9696 9.22082 13.9696 9.22082 13.9688 9.28129C13.9949 9.28088 14.0211 9.28046 14.0481 9.28003C14.3219 9.27587 14.5956 9.27305 14.8694 9.271C14.9714 9.27006 15.0734 9.26878 15.1755 9.26715C15.3225 9.26486 15.4696 9.26381 15.6167 9.26298C15.6619 9.26202 15.7072 9.26105 15.7538 9.26005C16.0393 9.25996 16.2645 9.29875 16.5 9.46879C16.7182 9.74299 16.7546 9.96949 16.7344 10.3125C16.7105 10.4994 16.6778 10.684 16.6436 10.8692C16.635 10.9175 16.6265 10.9659 16.6176 11.0157C16.5544 11.3682 16.5544 11.3682 16.5 11.5313C16.4929 11.6349 16.4883 11.7386 16.4852 11.8424C16.4832 11.9033 16.4812 11.9641 16.4792 12.0269C16.4774 12.0912 16.4755 12.1555 16.4736 12.2198C16.4716 12.2846 16.4696 12.3495 16.4675 12.4143C16.4625 12.5731 16.4577 12.7319 16.4531 12.8907C16.4833 12.8905 16.5136 12.8902 16.5447 12.89C17.2802 12.8848 18.0157 12.881 18.7512 12.8785C19.1069 12.8773 19.4626 12.8757 19.8183 12.873C20.1283 12.8707 20.4383 12.8691 20.7483 12.8686C20.9125 12.8683 21.0766 12.8676 21.2408 12.8659C21.4241 12.864 21.6073 12.864 21.7906 12.8641C21.8722 12.8628 21.8722 12.8628 21.9554 12.8615C22.3225 12.8639 22.3225 12.8639 22.5104 13.0005C22.8673 13.5337 22.5091 14.8224 22.3943 15.4069C22.0126 17.216 21.1871 18.9322 19.9215 20.2901C19.8372 20.3809 19.7579 20.4742 19.6787 20.5694C18.302 22.1432 16.2681 23.1761 14.25 23.6192C14.2092 23.6281 14.1685 23.6371 14.1265 23.6463C13.4285 23.7901 12.7427 23.8318 12.0322 23.8301C11.9891 23.8301 11.946 23.83 11.9017 23.83C10.4479 23.8254 9.07215 23.546 7.73438 22.9688C7.68628 22.9485 7.68628 22.9485 7.63721 22.9277C6.63175 22.4981 5.73391 21.8814 4.93213 21.1421C4.8389 21.0568 4.74343 20.9756 4.64648 20.8946C2.81584 19.2877 1.73246 16.8197 1.45312 14.4375C1.44696 14.3858 1.4408 14.334 1.43445 14.2806C1.42097 14.1453 1.41242 14.0109 1.40625 13.875C1.40448 13.8446 1.4027 13.8141 1.40087 13.7827C1.3954 13.6816 1.39182 13.5807 1.38867 13.4795C1.38638 13.4177 1.38408 13.3559 1.38171 13.2922C1.40625 13.125 1.40625 13.125 1.48942 12.9991C1.71975 12.8339 1.93271 12.8598 2.20941 12.8641C2.26705 12.864 2.32469 12.864 2.38408 12.864C2.54176 12.8641 2.69937 12.8653 2.85703 12.8669C3.02194 12.8684 3.18685 12.8685 3.35176 12.8688C3.66386 12.8695 3.97595 12.8714 4.28805 12.8738C4.64343 12.8764 4.99882 12.8777 5.35421 12.8789C6.08511 12.8813 6.81599 12.8854 7.54688 12.8907C7.54243 12.7069 7.53744 12.5231 7.532 12.3393C7.52936 12.2468 7.52713 12.1542 7.5249 12.0616C7.51047 11.587 7.44447 11.1427 7.33315 10.6822C7.25941 10.3665 7.20819 10.0479 7.32129 9.73833C7.46963 9.51326 7.61363 9.35735 7.875 9.28129C8.03995 9.26868 8.20423 9.2704 8.36957 9.27214C8.4171 9.27227 8.46462 9.2724 8.51359 9.27254C8.66499 9.27307 8.81638 9.27424 8.96777 9.27544C9.07059 9.27591 9.1734 9.27633 9.27621 9.27672C9.5279 9.27775 9.77957 9.27932 10.0312 9.28129C10.0299 9.22324 10.0299 9.22324 10.0286 9.16402C10.0279 9.11329 10.0272 9.06256 10.0265 9.0103C10.0252 8.93484 10.0252 8.93484 10.0238 8.85786C10.034 8.66747 10.0883 8.5749 10.2188 8.43754C10.4649 8.24781 10.6387 8.19778 10.9438 8.19562ZM10.7344 8.95317C10.7344 9.06145 10.7344 9.16973 10.7344 9.28129C11.5697 9.28129 12.405 9.28129 13.2656 9.28129C13.2656 9.17301 13.2656 9.06473 13.2656 8.95317C13.1881 8.87563 13.0971 8.90032 12.9904 8.90023C12.9418 8.90008 12.8931 8.89993 12.843 8.89978C12.7901 8.89988 12.7371 8.89997 12.6826 8.90007C12.6287 8.90002 12.5748 8.89998 12.5192 8.89993C12.4049 8.8999 12.2907 8.89999 12.1764 8.90018C12.0008 8.90043 11.8252 8.90019 11.6495 8.89989C11.5388 8.89992 11.4281 8.89998 11.3174 8.90007C11.238 8.89993 11.238 8.89993 11.157 8.89978C11.1083 8.89993 11.0597 8.90008 11.0096 8.90023C10.9665 8.90027 10.9235 8.9003 10.8791 8.90034C10.7818 8.89541 10.7818 8.89541 10.7344 8.95317ZM8.01562 9.98442C7.96016 10.2618 7.99916 10.4606 8.05078 10.7344C8.05876 10.7806 8.06673 10.8267 8.07495 10.8743C8.13163 11.2016 8.13163 11.2016 8.29688 11.4844C8.43934 11.5722 8.54612 11.5897 8.7122 11.5888C8.75724 11.5888 8.80227 11.5888 8.84867 11.5888C8.92104 11.5881 8.92104 11.5881 8.99487 11.5873C9.04455 11.5872 9.09422 11.5871 9.14541 11.5869C9.30397 11.5864 9.46253 11.5852 9.62109 11.584C9.72864 11.5836 9.83618 11.5831 9.94373 11.5827C10.2073 11.5817 10.4708 11.5801 10.7344 11.5782C10.7614 11.526 10.7885 11.4738 10.8164 11.42C10.8735 11.3219 10.9145 11.2561 11.0024 11.1835C11.1702 11.1408 11.3371 11.142 11.5091 11.1422C11.5478 11.142 11.5865 11.1418 11.6264 11.1416C11.7082 11.1413 11.7899 11.1413 11.8717 11.1415C11.9965 11.1416 12.1212 11.1405 12.246 11.1394C12.3256 11.1393 12.4051 11.1392 12.4847 11.1393C12.5218 11.1388 12.559 11.1384 12.5973 11.138C12.81 11.1397 12.9573 11.1522 13.125 11.2969C13.21 11.4463 13.21 11.4463 13.2656 11.5782C13.5818 11.5817 13.8979 11.5842 14.2141 11.5859C14.3216 11.5866 14.4291 11.5876 14.5366 11.5888C14.6913 11.5905 14.8459 11.5913 15.0005 11.5919C15.0726 11.593 15.0726 11.593 15.146 11.5941C15.4733 11.5982 15.4733 11.5982 15.75 11.4375C15.8696 11.1708 15.9191 10.8915 15.9727 10.6055C15.9792 10.5712 15.9858 10.5368 15.9925 10.5014C16.0269 10.304 16.0247 10.1861 15.9844 9.98442C13.3547 9.98442 10.725 9.98442 8.01562 9.98442ZM11.4375 11.8125C11.4375 11.9054 11.4375 11.9982 11.4375 12.0938C11.8088 12.0938 12.18 12.0938 12.5625 12.0938C12.5625 12.001 12.5625 11.9082 12.5625 11.8125C12.1912 11.8125 11.82 11.8125 11.4375 11.8125ZM8.25 12.2344C8.24705 12.5968 8.24423 12.9591 8.24272 13.3214C8.24198 13.4901 8.24099 13.6589 8.23939 13.8276C8.23786 13.9902 8.23702 14.1528 8.23666 14.3154C8.23627 14.4075 8.23518 14.4995 8.23407 14.5916C8.23406 14.6478 8.23405 14.7041 8.23404 14.7621C8.23372 14.8116 8.23341 14.861 8.23309 14.912C8.2526 15.0677 8.29824 15.1556 8.39062 15.2813C8.51813 15.345 8.61852 15.3344 8.76132 15.3348C8.82034 15.335 8.87936 15.3353 8.94017 15.3356C9.00594 15.3356 9.07172 15.3357 9.13749 15.3357C9.20647 15.3359 9.27545 15.3362 9.34444 15.3364C9.53213 15.337 9.71982 15.3373 9.90752 15.3376C10.0247 15.3377 10.1419 15.3379 10.2591 15.3381C10.6256 15.3387 10.9922 15.3392 11.3587 15.3394C11.7821 15.3396 12.2055 15.3404 12.6289 15.3418C12.956 15.3428 13.2831 15.3432 13.6102 15.3433C13.8056 15.3434 14.0011 15.3436 14.1965 15.3445C14.3803 15.3452 14.5642 15.3453 14.748 15.3449C14.8155 15.3449 14.883 15.3451 14.9505 15.3456C15.0426 15.3462 15.1347 15.3458 15.2268 15.3454C15.3041 15.3455 15.3041 15.3455 15.383 15.3456C15.533 15.3259 15.5965 15.2934 15.7031 15.1875C15.7532 15.0374 15.7557 14.9306 15.7553 14.7728C15.7553 14.7165 15.7553 14.6602 15.7553 14.6022C15.7551 14.5414 15.7548 14.4806 15.7546 14.418C15.7545 14.3551 15.7544 14.2922 15.7544 14.2294C15.7542 14.0641 15.7537 13.8988 15.7532 13.7335C15.7527 13.5648 15.7525 13.396 15.7523 13.2273C15.7518 12.8963 15.7509 12.5654 15.75 12.2344C14.9302 12.2499 14.1103 12.2654 13.2656 12.2813C13.2192 12.3741 13.1728 12.4669 13.125 12.5625C13.0392 12.6599 12.9788 12.6971 12.8501 12.7159C12.7389 12.7226 12.6287 12.7239 12.5173 12.7235C12.4765 12.7237 12.4357 12.724 12.3936 12.7242C12.3075 12.7245 12.2213 12.7245 12.1351 12.7241C12.0035 12.7237 11.872 12.725 11.7404 12.7265C11.6566 12.7266 11.5728 12.7266 11.489 12.7264C11.4301 12.7272 11.4301 12.7272 11.3701 12.728C11.1873 12.7258 11.0853 12.7165 10.9245 12.6226C10.8281 12.5157 10.8281 12.5157 10.7344 12.2813C9.91453 12.2658 9.09469 12.2504 8.25 12.2344ZM2.10938 13.5938C2.16815 14.451 2.16815 14.451 2.30566 15.2901C2.31571 15.336 2.32576 15.3819 2.33611 15.4292C2.77156 17.3392 3.76518 18.9427 5.10938 20.3438C5.13158 20.3269 5.15379 20.31 5.17668 20.2926C5.81362 19.8109 6.4775 19.3783 7.17188 18.9844C7.11419 18.709 7.0445 18.4406 6.9651 18.1708C6.52309 16.6605 6.38284 15.1684 6.28125 13.5938C4.90453 13.5938 3.52781 13.5938 2.10938 13.5938ZM6.98438 13.5938C6.94016 15.2864 7.22398 17.0737 7.82812 18.6563C7.85287 18.648 7.87761 18.6397 7.90311 18.6311C9.04964 18.2472 10.1805 17.9505 11.3913 17.8696C11.5013 17.8597 11.5013 17.8597 11.6719 17.8125C11.6719 17.2247 11.6719 16.6369 11.6719 16.0313C11.4331 16.0306 11.1944 16.03 10.9484 16.0293C10.7965 16.0283 10.6447 16.0273 10.4928 16.0261C10.2521 16.0241 10.0114 16.0224 9.77066 16.0221C9.57643 16.0219 9.38223 16.0206 9.18802 16.0185C9.11418 16.0179 9.04035 16.0177 8.96652 16.0179C8.19897 16.0196 8.19897 16.0196 7.875 15.75C7.63108 15.4623 7.58054 15.1381 7.57434 14.7702C7.57343 14.7364 7.57253 14.7025 7.57159 14.6676C7.56881 14.5607 7.56662 14.4537 7.56445 14.3467C7.56266 14.2737 7.56083 14.2007 7.55896 14.1276C7.55449 13.9497 7.55054 13.7718 7.54688 13.5938C7.36125 13.5938 7.17562 13.5938 6.98438 13.5938ZM16.4531 13.5938C16.4524 13.6384 16.4518 13.6831 16.4511 13.7291C16.4483 13.8966 16.4447 14.064 16.4408 14.2315C16.4393 14.3037 16.438 14.3758 16.4369 14.4479C16.4229 15.366 16.4229 15.366 16.1602 15.6944C15.8901 15.9092 15.704 16.0076 15.3561 16.01C15.3231 16.0105 15.2901 16.011 15.2562 16.0115C15.1484 16.0128 15.0406 16.0129 14.9328 16.013C14.8576 16.0137 14.7824 16.0145 14.7072 16.0153C14.5102 16.0174 14.3131 16.0183 14.1161 16.019C13.8792 16.0201 13.6423 16.0226 13.4054 16.0248C13.0463 16.028 12.6872 16.0295 12.3281 16.0313C12.3281 16.6191 12.3281 17.2069 12.3281 17.8125C12.4645 17.8466 12.5711 17.8671 12.7081 17.8763C13.9107 17.9671 15.0331 18.2736 16.1719 18.6563C16.7544 17.0574 17.0601 15.297 17.0156 13.5938C16.83 13.5938 16.6444 13.5938 16.4531 13.5938ZM17.7188 13.5938C17.6878 14.0733 17.6569 14.5529 17.625 15.0469C17.489 16.2274 17.3031 17.3815 16.9264 18.5108C16.9061 18.5727 16.9061 18.5727 16.8854 18.6358C16.8732 18.6716 16.861 18.7075 16.8485 18.7444C16.8247 18.8605 16.8283 18.9223 16.875 19.0313C16.9474 19.0921 16.9474 19.0921 17.0411 19.1357C17.0756 19.1538 17.1102 19.1719 17.1458 19.1906C17.2017 19.2191 17.2017 19.2191 17.2588 19.2481C17.8349 19.5543 18.3405 19.9287 18.8438 20.3438C19.5652 19.7635 20.1246 18.9811 20.5768 18.1793C20.6083 18.1234 20.6402 18.0676 20.6725 18.0122C21.4616 16.6551 21.7937 15.1451 21.8906 13.5938C20.5139 13.5938 19.1372 13.5938 17.7188 13.5938ZM12.3281 18.5157C12.3281 19.9852 12.3281 21.4547 12.3281 22.9688C13.5433 22.7258 14.3789 21.9792 15.0568 20.9691C15.6095 20.1853 15.6095 20.1853 15.8906 19.3125C15.1592 18.9957 14.412 18.7754 13.626 18.6416C13.5824 18.6342 13.5389 18.6267 13.4941 18.619C13.103 18.5571 12.7284 18.5407 12.3281 18.5157ZM8.10938 19.3125C8.20041 19.6166 8.31974 19.8916 8.46973 20.1709C8.49045 20.2098 8.51117 20.2486 8.53252 20.2887C9.12662 21.3877 9.98347 22.4707 11.2095 22.8769C11.4374 22.9443 11.4374 22.9443 11.6719 22.9688C11.6719 21.4993 11.6719 20.0297 11.6719 18.5157C10.4945 18.5157 9.16796 18.7833 8.10938 19.3125ZM16.5469 19.6407C16.5252 19.685 16.5036 19.7294 16.4813 19.7751C15.9322 20.8928 15.3282 21.9849 14.3438 22.7813C14.5897 22.8646 14.7958 22.7589 15.0322 22.6788C15.0817 22.662 15.1313 22.6453 15.1823 22.6281C16.3474 22.2207 17.358 21.6102 18.3281 20.8594C17.8296 20.3463 17.2272 19.9671 16.5938 19.6407C16.5783 19.6407 16.5628 19.6407 16.5469 19.6407ZM7.40625 19.6407C7.2933 19.6921 7.18859 19.7463 7.08105 19.8077C7.03219 19.8353 7.03219 19.8353 6.98234 19.8635C6.69939 20.0285 6.43367 20.2144 6.16992 20.4082C6.13119 20.4367 6.09246 20.4651 6.05256 20.4944C5.83893 20.6536 5.83893 20.6536 5.67188 20.8594C6.66039 21.6616 7.76055 22.2704 8.96777 22.6788C9.01531 22.6949 9.06284 22.711 9.11182 22.7276C9.38153 22.8215 9.38153 22.8215 9.65625 22.7813C9.61879 22.7488 9.58132 22.7164 9.54272 22.683C8.68619 21.9265 8.09407 21.0006 7.6296 19.9607C7.5566 19.7675 7.5566 19.7675 7.40625 19.6407Z" fill="#7C877F"/>
<path d="M13.2077 0.504395C13.6854 0.85692 13.9819 1.33531 14.0874 1.91907C14.1579 2.53391 14.0237 3.09299 13.643 3.58734C13.5664 3.67558 13.4886 3.76085 13.4062 3.84369C13.4578 3.86925 13.5093 3.89481 13.5624 3.92114C13.9913 4.13815 14.3641 4.35928 14.7187 4.68744C14.7527 4.71826 14.7868 4.74907 14.8218 4.78082C15.4698 5.39545 15.9114 6.2902 15.9939 7.18097C15.9975 7.3298 15.994 7.43514 15.9228 7.56732C15.7687 7.71002 15.6062 7.69351 15.4066 7.69402C15.3764 7.69416 15.3462 7.6943 15.3151 7.69444C15.2137 7.69485 15.1123 7.69492 15.011 7.69499C14.9384 7.69521 14.8658 7.69545 14.7932 7.6957C14.5958 7.69631 14.3984 7.69662 14.201 7.69682C14.0777 7.69696 13.9544 7.69715 13.8312 7.69736C13.4455 7.698 13.0598 7.69846 12.6742 7.69864C12.2288 7.69885 11.7835 7.69967 11.3382 7.70103C10.994 7.70204 10.6499 7.70251 10.3057 7.70258C10.1001 7.70263 9.89452 7.7029 9.68893 7.70374C9.49555 7.70451 9.30219 7.70462 9.10881 7.7042C9.03786 7.70417 8.9669 7.70437 8.89595 7.70483C8.79903 7.70543 8.70216 7.70516 8.60525 7.70467C8.52392 7.70477 8.52392 7.70477 8.44095 7.70487C8.28002 7.6854 8.19172 7.64307 8.06246 7.54681C7.93812 7.29812 8.02698 6.97087 8.09469 6.71478C8.10735 6.66609 8.10735 6.66609 8.12027 6.61642C8.41552 5.52307 9.10713 4.68982 10.073 4.11395C10.2439 4.01688 10.4159 3.92738 10.5937 3.84369C10.5733 3.82314 10.5529 3.8026 10.5318 3.78143C10.1023 3.32397 9.91157 2.82987 9.89059 2.20306C9.90989 1.6748 10.0995 1.16666 10.465 0.777405C11.2341 0.0788369 12.3159 -0.0637155 13.2077 0.504395ZM10.875 1.40619C10.6629 1.70318 10.5699 2.08054 10.6096 2.44165C10.7075 2.90093 10.9205 3.19412 11.3032 3.46008C11.6027 3.65029 11.9598 3.69012 12.3076 3.62982C12.6835 3.53019 13.0063 3.27614 13.2187 2.95306C13.4209 2.55891 13.4337 2.19807 13.3158 1.77643C13.1865 1.4263 12.9304 1.16962 12.6093 0.984314C11.9631 0.723324 11.3308 0.901747 10.875 1.40619ZM9.43887 5.53064C9.07705 5.99173 8.92005 6.41797 8.76559 6.98431C10.9003 6.98431 13.035 6.98431 15.2343 6.98431C14.9423 5.96204 14.491 5.29597 13.5966 4.74292C12.1866 3.97851 10.4871 4.34268 9.43887 5.53064Z" fill="#7C877F"/>
<path d="M21.2631 5.41603C21.6352 5.68932 21.9289 6.0594 22.0312 6.51558C22.1081 7.20662 21.9698 7.68787 21.5625 8.24996C21.5971 8.26537 21.6317 8.28077 21.6674 8.29665C22.4843 8.67967 23.1052 9.31601 23.4287 10.163C23.7031 10.991 23.7031 10.991 23.562 11.2893C23.4843 11.3906 23.4843 11.3906 23.3906 11.4375C23.309 11.442 23.2273 11.4436 23.1457 11.4437C23.0937 11.4439 23.0418 11.4441 22.9883 11.4443C22.9311 11.4443 22.8739 11.4443 22.8149 11.4443C22.7549 11.4444 22.6948 11.4446 22.6329 11.4447C22.4679 11.4452 22.3028 11.4453 22.1378 11.4453C22.0001 11.4453 21.8624 11.4455 21.7247 11.4457C21.3999 11.4461 21.0751 11.4462 20.7502 11.4461C20.415 11.4461 20.0798 11.4466 19.7445 11.4474C19.4569 11.448 19.1692 11.4482 18.8815 11.4482C18.7097 11.4482 18.5378 11.4483 18.3659 11.4488C18.1742 11.4493 17.9826 11.4491 17.7909 11.4488C17.7338 11.4491 17.6768 11.4494 17.618 11.4496C17.5658 11.4494 17.5137 11.4492 17.4599 11.449C17.3919 11.4491 17.3919 11.4491 17.3225 11.4491C17.197 11.4369 17.1211 11.4118 17.0156 11.3437C16.8504 11.0134 16.9919 10.5912 17.1005 10.2615C17.4451 9.27551 18.1199 8.67168 19.0312 8.20308C19.0131 8.18429 18.9949 8.1655 18.9763 8.14614C18.5952 7.73018 18.4912 7.29925 18.5029 6.74483C18.5356 6.27322 18.7433 5.90706 19.0781 5.57808C19.722 5.07934 20.5515 4.99591 21.2631 5.41603ZM19.3753 6.32808C19.2017 6.58719 19.1762 6.86775 19.2187 7.17183C19.3286 7.51938 19.5121 7.74322 19.8281 7.92183C20.1188 8.05235 20.3732 8.04753 20.6718 7.94527C20.9593 7.82213 21.1524 7.62126 21.2889 7.34102C21.3797 7.05765 21.3775 6.72446 21.2548 6.45113C21.079 6.15331 20.812 5.9628 20.4843 5.85933C20.0294 5.80712 19.6572 5.96718 19.3753 6.32808ZM18.2812 9.60933C18.0376 9.89921 17.7187 10.3409 17.7187 10.7343C19.4048 10.7343 21.0909 10.7343 22.8281 10.7343C22.7375 10.1907 22.4653 9.80362 22.0781 9.42183C22.0516 9.39488 22.0251 9.36793 21.9979 9.34017C21.4976 8.86921 20.8043 8.68727 20.1331 8.70571C19.3996 8.7637 18.7832 9.07107 18.2812 9.60933Z" fill="#7C877F"/>
<path d="M4.80982 5.49129C5.15937 5.76202 5.39628 6.12918 5.48438 6.56246C5.53615 7.12304 5.48594 7.59046 5.12824 8.03462C5.07716 8.09268 5.02343 8.1484 4.96876 8.20308C5.01069 8.2258 5.05263 8.24852 5.09583 8.27193C5.99027 8.76415 6.6055 9.40062 6.9452 10.3753C7.02183 10.6535 7.08695 10.9622 7.03126 11.25C6.95771 11.3401 6.901 11.3854 6.79688 11.4375C6.71535 11.4421 6.63363 11.4438 6.55197 11.444C6.50005 11.4443 6.44813 11.4446 6.39463 11.4448C6.30879 11.4449 6.30879 11.4449 6.22122 11.445C6.16116 11.4452 6.10109 11.4455 6.03921 11.4457C5.87418 11.4463 5.70915 11.4466 5.54411 11.4468C5.44105 11.447 5.33798 11.4472 5.23491 11.4474C4.91255 11.448 4.59018 11.4485 4.26782 11.4487C3.89549 11.4489 3.52316 11.4497 3.15084 11.451C2.86317 11.4521 2.57551 11.4525 2.28785 11.4526C2.11598 11.4526 1.94411 11.4529 1.77224 11.4538C1.58055 11.4547 1.38887 11.4545 1.19717 11.4542C1.11162 11.4548 1.11162 11.4548 1.02433 11.4555C0.946058 11.4551 0.946058 11.4551 0.866199 11.4547C0.820865 11.4548 0.775531 11.4548 0.728823 11.4549C0.587669 11.4343 0.523915 11.3952 0.421881 11.2968C0.27694 10.813 0.522238 10.2205 0.750006 9.79683C0.770187 9.75798 0.790369 9.71912 0.811163 9.67909C1.1877 9.00153 1.74485 8.56976 2.43751 8.24996C2.41545 8.21708 2.3934 8.18421 2.37067 8.15035C2.32689 8.08364 2.32689 8.08364 2.28223 8.01558C2.239 7.95032 2.239 7.95032 2.19489 7.88374C2.01836 7.57528 1.94224 7.30461 1.94532 6.94917C1.94562 6.91238 1.94592 6.87558 1.94623 6.83767C1.9615 6.3476 2.13919 5.97199 2.47999 5.62038C3.14728 5.01409 4.0695 5.0187 4.80982 5.49129ZM2.81983 6.3354C2.64309 6.61724 2.63858 6.89456 2.67188 7.21871C2.75297 7.51052 2.93704 7.71154 3.18751 7.87496C3.44617 8.00989 3.69308 8.06262 3.98292 7.99361C4.26627 7.90206 4.49236 7.74983 4.65583 7.49812C4.80561 7.20067 4.83811 6.91165 4.75031 6.58955C4.63462 6.29106 4.45626 6.10081 4.17426 5.95162C3.64985 5.72908 3.17137 5.90211 2.81983 6.3354ZM1.70691 9.61372C1.53933 9.81548 1.42106 10.0278 1.31251 10.2656C1.29667 10.2987 1.28084 10.3318 1.26453 10.3659C1.20445 10.4971 1.17188 10.5885 1.17188 10.7343C2.85797 10.7343 4.54407 10.7343 6.28126 10.7343C6.06411 10.0105 5.69389 9.41993 5.01563 9.04683C3.87097 8.4434 2.59779 8.67921 1.70691 9.61372Z" fill="#7C877F"/>
</g>
<defs>
<clipPath id="clip0_193_8676">
<rect width="24" height="24" fill="white"/>
</clipPath>
</defs>
</svg>
